<?xml version="1.0" encoding="utf-8"?>
<!-- Generator: Adobe Illustrator 23.1.0, SVG Export Plug-In . SVG Version: 6.00 Build 0)  -->
<svg version="1.1" id="Layer_1" xmlns="http://www.w3.org/2000/svg" xmlns:xlink="http://www.w3.org/1999/xlink" x="0px" y="0px"
	 viewBox="0 0 1400 146" style="enable-background:new 0 0 1400 146;" xml:space="preserve">
<style type="text/css">
	.st0{fill:#FFFFFF;}
</style>
<path class="st0" d="M762.98,40.32c0.15-23.67-17.42-36.92-48.39-36.92h-78.46l-0.3,138.76h75.33
	c36.33-0.15,54.49-12.95,54.49-39.16c0-18.01-11.32-30.22-29.48-31.71C754.04,67.42,762.83,57.29,762.98,40.32L762.98,40.32z
	 M700.3,58.19L700.3,58.19h-17.12V33.47h17.27c9.08,0,15.04,3.87,15.04,12.21c0,7.89-5.81,12.36-15.33,12.36l0,0L700.3,58.19z
	 M700.6,112.08L700.6,112.08h-17.42l0.15-26.05h17.57c9.38,0,15.33,4.17,15.33,12.95C716.23,107.32,710.27,112.08,700.6,112.08
	L700.6,112.08z M569.13,90.34L569.13,90.34c16.82-6.25,26.05-23.37,26.05-39.3c0.15-32.75-22.03-47.64-53.6-47.64H467.3
	l-0.45,138.76h47.64l0.15-41.09h12.06l24.57,41.09h51.51L569.13,90.34z M531.76,65.63L531.76,65.63h-16.97l0.15-28.88h17.12
	c9.08,0,14.89,4.62,14.89,14.29C546.95,60.27,541.14,65.63,531.76,65.63L531.76,65.63z M1399,98.38L1399,98.38
	c0-32.01-26.95-40.79-47.94-45.41c-15.93-3.42-23.37-5.06-23.37-11.46c0-8.49,10.72-9.23,16.38-9.23c14.29,0,27.54,5.96,39.01,12.95
	l12.95-31.56c-16.82-7.3-37.22-13.1-56.13-13.1c-32.46,0-57.77,15.78-57.77,47.49c0,26.05,19.5,36.18,40.94,41.54
	c14.89,3.72,24.42,4.76,24.42,12.36c0,7.59-7.3,9.68-14.44,9.68c-15.78,0-30.67-7-39.9-14.89l-15.63,30.67
	c16.67,10.87,37.22,17.87,57.77,17.87c31.27,0,63.57-11.17,63.72-46.6l0,0V98.38z M122.49,98.38L122.49,98.38
	c0.15-32.01-26.8-40.79-47.79-45.41c-15.78-3.42-23.52-5.06-23.37-11.46c0-8.49,10.72-9.08,16.38-9.08
	c14.29,0,27.54,5.96,39.01,12.95l12.95-31.56C102.84,6.52,82.59,0.87,63.53,0.87c-32.46,0-57.62,15.78-57.77,47.49
	c0,26.05,19.35,36.03,40.94,41.39c14.89,3.72,24.42,4.91,24.42,12.36c0,7.44-7.3,9.68-14.44,9.68
	c-14.74-0.15-28.88-5.51-40.05-14.89L1,127.57c16.67,11.02,37.22,17.87,57.77,17.87c31.27,0,63.42-11.17,63.57-46.75l0,0
	L122.49,98.38z M1174.19,91.68L1174.19,91.68l-0.15,50.62l-48.09-0.15L1126.4,3.4h48.09l-0.15,50.77l29.18-50.77h53.6l-45.26,68.34
	l50.77,70.42h-57.47l-30.82-50.47H1174.19z M1079.05,95.41L1079.05,95.41c-8.78,6.55-17.57,12.65-32.01,12.51
	c-19.35,0-32.31-16.08-32.31-35.73c0-19.95,11.46-36.62,31.71-36.62c12.8,0,23.82,6.4,32.75,13.55l14.74-35.28
	c-16.38-8.34-32.61-13.25-55.24-13.25c-41.69,0-73.25,28.73-73.4,71.17c-0.15,44.81,30.52,73.1,74.44,73.1
	c24.12,0,41.09-5.66,54.04-13.55l-14.74-36.03V95.41z M357.57,34.96L357.57,34.96l-12.36,47.49h24.71L357.57,34.96z M389.13,142.01
	L389.13,142.01l-8.19-25.46H334.5l-8.78,25.46h-49.28L326.9,3.25h62.53l49.13,138.76h-49.28H389.13z M141.84,38.38L141.84,38.38
	l0.15-35.14h132.36l-0.15,35.14h-41.39l-0.3,103.62h-49.58l0.3-103.62H141.84z M935.23,78.88L935.23,78.88
	c-0.15,42.88-23.82,65.95-68.34,65.95c-43.62,0-68.19-23.67-68.04-65.51l0.3-76.08h48.98l-0.15,73.7c0,20.4,5.36,29.48,18.61,29.48
	c13.25,0,19.5-8.04,19.65-31.56l0.15-71.61h48.98l-0.3,75.63H935.23z"/>
</svg>
