<?xml version="1.0" encoding="UTF-8"?>
<!DOCTYPE svg PUBLIC "-//W3C//DTD SVG 1.1//EN" "http://www.w3.org/Graphics/SVG/1.1/DTD/svg11.dtd">
<!-- Creator: CorelDRAW X5 -->
<svg xmlns="http://www.w3.org/2000/svg" xml:space="preserve" width="83.82mm" height="83.82mm" style="shape-rendering:geometricPrecision; text-rendering:geometricPrecision; image-rendering:optimizeQuality; fill-rule:evenodd; clip-rule:evenodd"
viewBox="0 0 8382 8382"
 xmlns:xlink="http://www.w3.org/1999/xlink"
 xmlns:svg="http://www.w3.org/2000/svg">
 <defs>
  <style type="text/css">
   <![CDATA[
    .fil1 {fill:#007049;fill-rule:nonzero}
    .fil0 {fill:white;fill-rule:nonzero}
   ]]>
  </style>
 </defs>
 <g id="Layer_x0020_1">
  <metadata id="CorelCorpID_0Corel-Layer"/>
 </g>
 <g id="Layer_x0020_1_0">
  <metadata id="CorelCorpID_1Corel-Layer"/>
  <path class="fil0" d="M8384 4191c0,2316 -1877,4193 -4193,4193 -2316,0 -4193,-1877 -4193,-4193 0,-2316 1877,-4193 4193,-4193 2316,0 4193,1877 4193,4193z"/>
  <path class="fil1" d="M4613 1811c-37,-7 -214,-36 -422,-36 -208,0 -385,30 -422,36 -21,3 -29,-17 -13,-29 15,-11 435,-331 435,-331 0,0 420,320 434,331 16,12 8,32 -13,29zm-726 2076l0 0c0,0 -22,8 -28,28 88,68 149,222 332,222 183,0 244,-154 332,-222 -6,-19 -28,-28 -28,-28 0,0 -115,27 -304,27 -189,0 -304,-27 -304,-27zm304 -259l0 0c-51,0 -62,-19 -97,-19 -33,0 -97,26 -111,51 1,12 5,23 14,33 75,11 108,53 194,53 86,0 120,-41 194,-53 9,-10 13,-21 14,-33 -14,-25 -78,-50 -111,-51 -35,0 -46,19 -97,19zm4187 793l0 0c-6,100 -14,200 -27,298 -474,78 -644,-345 -1130,-323 29,103 53,208 71,316 401,0 563,374 1009,319 -23,115 -51,228 -84,339 -353,35 -477,-316 -885,-306 3,58 5,117 5,176 0,33 -1,65 -2,98 348,-4 461,317 793,302 -41,113 -88,223 -139,331 -238,-13 -320,-318 -683,-294 -11,78 -25,156 -41,232 315,-22 383,268 608,291 -57,105 -119,207 -185,307 -134,-72 -250,-288 -503,-301 26,-80 49,-161 68,-244 -225,0 -482,-88 -698,-284 70,-398 -548,-803 -548,-1094 0,-316 160,-491 160,-918 0,-317 -154,-660 -385,-895 -45,-46 -91,-82 -144,-116 213,263 377,576 377,938 0,402 -187,614 -187,985 0,370 542,691 542,1073 0,151 -48,298 -206,586 243,243 561,376 765,376 66,0 102,-20 126,-72 20,-45 40,-91 58,-137 220,9 321,209 443,289 -67,90 -137,177 -211,261 -82,-91 -192,-243 -353,-285 -28,56 -60,111 -91,165 138,38 234,177 307,269 -79,82 -161,161 -247,236 -53,-83 -137,-189 -230,-246 -35,47 -70,92 -108,137 80,54 150,150 195,229 -99,79 -201,155 -307,226 -52,-426 -634,-718 -477,-1212 -51,87 -113,196 -113,327 0,358 381,642 411,997 -79,47 -160,91 -242,134 -14,-391 -417,-818 -417,-1139 0,-357 469,-717 469,-1140 0,-423 -541,-715 -541,-1086 0,-371 230,-584 230,-1060 0,-348 -165,-701 -421,-926 -45,-40 -89,-72 -143,-99 241,289 381,552 381,950 0,447 -263,695 -263,1133 0,437 530,681 530,1089 0,408 -494,752 -494,1171 0,382 436,763 442,1215 -95,41 -192,79 -291,114 56,-457 -435,-929 -435,-1302 0,-408 512,-758 512,-1198 0,-440 -521,-644 -521,-1096 0,-451 320,-701 320,-1200 0,-389 -192,-738 -473,-955 -6,-4 -12,-9 -18,-13 -26,-19 -48,4 -29,28 198,248 304,498 304,869 0,456 -367,827 -367,1269 0,521 493,671 493,1098 0,428 -529,770 -529,1224 0,421 501,889 415,1375 -100,26 -202,48 -305,67 94,-605 -397,-1040 -397,-1436 0,-429 547,-811 547,-1230 0,-395 -393,-524 -445,-928 -7,-55 -51,-96 -113,-86 -80,15 -182,67 -343,67 -161,0 -263,-53 -343,-67 -61,-10 -105,31 -112,86 -51,404 -445,534 -445,928 0,419 547,801 547,1230 0,396 -491,831 -397,1436 -103,-19 -205,-41 -305,-67 -86,-487 415,-954 415,-1375 0,-454 -529,-796 -529,-1224 0,-428 493,-577 493,-1098 0,-442 -367,-813 -367,-1269 0,-371 106,-622 305,-869 19,-23 -3,-47 -30,-28 -6,4 -12,9 -18,13 -280,217 -472,566 -472,955 0,499 320,749 320,1200 0,451 -521,656 -521,1096 0,440 512,790 512,1198 0,373 -490,845 -435,1302 -99,-34 -196,-72 -291,-114 7,-452 442,-834 442,-1215 0,-419 -494,-763 -494,-1171 0,-408 530,-652 530,-1089 0,-438 -263,-686 -263,-1133 0,-398 140,-661 381,-950 -54,28 -98,60 -144,99 -256,225 -421,578 -421,926 0,475 230,689 230,1060 0,371 -541,664 -541,1086 0,423 469,782 469,1140 0,321 -404,748 -417,1139 -82,-42 -163,-87 -242,-134 31,-356 412,-639 412,-997 0,-131 -62,-240 -113,-327 157,494 -425,786 -477,1212 -106,-71 -208,-146 -307,-226 46,-79 116,-176 195,-229 -37,-44 -73,-90 -107,-137 -94,57 -177,163 -230,246 -85,-75 -168,-154 -247,-236 73,-92 168,-231 307,-269 -32,-54 -63,-109 -91,-165 -161,42 -271,195 -353,285 -74,-84 -144,-171 -211,-261 122,-80 223,-281 443,-289 18,46 38,92 58,137 24,52 60,72 126,72 205,0 522,-132 765,-376 -159,-288 -207,-435 -207,-586 0,-382 542,-703 542,-1073 0,-371 -187,-583 -187,-985 0,-362 164,-675 377,-938 -53,33 -99,70 -144,116 -232,235 -386,578 -386,895 0,426 160,602 160,918 0,292 -617,696 -547,1094 -216,196 -473,284 -698,284 20,83 42,164 68,244 -254,13 -370,229 -503,301 -66,-99 -128,-201 -185,-307 225,-23 293,-313 608,-291 -17,-76 -31,-154 -41,-232 -362,-24 -445,281 -683,294 -51,-108 -97,-218 -139,-331 332,15 445,-307 793,-302 -1,-33 -1,-65 -1,-98 0,-60 2,-118 5,-176 -408,-9 -532,341 -885,306 -32,-111 -61,-224 -84,-339 446,55 608,-320 1009,-319 18,-107 42,-213 71,-316 -486,-21 -656,402 -1130,323 -13,-98 -21,-198 -27,-298 552,62 758,-392 1261,-336 47,-120 103,-236 164,-348 -630,-110 -843,416 -1429,335 63,-2260 1915,-4074 4191,-4074 2276,0 4128,1813 4191,4074 -586,81 -800,-445 -1430,-335 62,112 117,228 165,348 502,-56 709,398 1261,336zm-5989 -1758l0 0c-309,-126 -682,-97 -1002,108 -49,-297 -210,-561 -440,-720 -32,-22 -65,-1 -62,36 49,627 -318,1172 -769,1651 465,140 861,-459 1464,-250 217,-323 492,-602 810,-825zm1802 -379l0 0c-389,0 -715,220 -801,505 -7,22 2,36 28,25 70,-31 150,-47 236,-47 159,0 299,59 381,160 37,121 40,296 -2,395 -65,-15 -89,-65 -153,-65 -64,0 -113,45 -222,45 -108,0 -121,-51 -192,-51 -84,0 -99,86 -99,184 0,434 399,1030 823,1030 424,0 823,-597 823,-1030 0,-97 -20,-181 -108,-192 -44,31 -84,60 -184,60 -108,0 -138,-45 -202,-45 -77,0 -69,162 -161,172 -61,-147 -64,-334 -13,-502 83,-101 223,-160 381,-160 86,0 167,15 236,47 25,11 34,-3 28,-25 -86,-284 -411,-505 -801,-505zm620 622l0 0c-93,0 -203,29 -272,105 -7,21 -7,52 3,73 169,-58 319,-60 390,20 38,-35 51,-67 51,-103 0,-56 -57,-95 -173,-95zm-1361 198l0 0c81,-82 254,-78 432,-13 8,-89 -151,-186 -310,-186 -116,0 -173,39 -173,95 0,36 12,68 51,103zm2682 -1468l0 0c-307,22 -574,127 -790,303 92,-260 208,-487 355,-708 -391,41 -718,185 -957,429l-187 -490 415 -367 -555 -39 -222 -516 -222 516 -555 39 415 367 -187 490c-239,-244 -566,-388 -957,-429 147,221 264,448 355,708 -216,-176 -483,-281 -790,-303 184,237 348,490 469,761 14,31 43,41 75,25 421,-209 895,-327 1397,-327 502,0 976,118 1397,327 32,16 61,6 75,-25 121,-271 284,-524 469,-761zm671 1852l0 0c603,-209 999,389 1464,250 -451,-479 -818,-1024 -769,-1651 3,-37 -30,-58 -62,-36 -230,159 -391,423 -440,720 -319,-205 -693,-234 -1002,-108 318,223 592,503 809,825z"/>
 </g>
</svg>
