<?xml version="1.0" encoding="UTF-8"?>
<!DOCTYPE svg PUBLIC "-//W3C//DTD SVG 1.1//EN" "http://www.w3.org/Graphics/SVG/1.1/DTD/svg11.dtd">
<svg xmlns="http://www.w3.org/2000/svg" version="1.1" width="256px" height="256px" style="shape-rendering:geometricPrecision; text-rendering:geometricPrecision; image-rendering:optimizeQuality; fill-rule:evenodd; clip-rule:evenodd" xmlns:xlink="http://www.w3.org/1999/xlink">
<g><path style="opacity:0.979" fill="#f73600" d="M 62.5,-0.5 C 73.1667,-0.5 83.8333,-0.5 94.5,-0.5C 94.5,9.83333 94.5,20.1667 94.5,30.5C 83.8333,30.5 73.1667,30.5 62.5,30.5C 62.5,20.1667 62.5,9.83333 62.5,-0.5 Z"/></g>
<g><path style="opacity:0.984" fill="#f83600" d="M -0.5,29.5 C 9.83333,29.5 20.1667,29.5 30.5,29.5C 30.5,40.5 30.5,51.5 30.5,62.5C 41.5,62.5 52.5,62.5 63.5,62.5C 63.5,73.1667 63.5,83.8333 63.5,94.5C 52.5,94.5 41.5,94.5 30.5,94.5C 30.5,105.167 30.5,115.833 30.5,126.5C 51.5,126.5 72.5,126.5 93.5,126.5C 93.5,105.167 93.5,83.8333 93.5,62.5C 104.5,62.5 115.5,62.5 126.5,62.5C 126.5,51.5 126.5,40.5 126.5,29.5C 158.5,29.5 190.5,29.5 222.5,29.5C 222.5,40.5 222.5,51.5 222.5,62.5C 233.5,62.5 244.5,62.5 255.5,62.5C 255.5,105.5 255.5,148.5 255.5,191.5C 244.5,191.5 233.5,191.5 222.5,191.5C 222.5,201.833 222.5,212.167 222.5,222.5C 212.167,222.5 201.833,222.5 191.5,222.5C 191.5,233.5 191.5,244.5 191.5,255.5C 148.5,255.5 105.5,255.5 62.5,255.5C 62.5,244.5 62.5,233.5 62.5,222.5C 51.5,222.5 40.5,222.5 29.5,222.5C 29.5,201.167 29.5,179.833 29.5,158.5C 19.5,158.5 9.5,158.5 -0.5,158.5C -0.5,136.833 -0.5,115.167 -0.5,93.5C 9.5,93.5 19.5,93.5 29.5,93.5C 29.5,83.5 29.5,73.5 29.5,63.5C 19.5,63.5 9.5,63.5 -0.5,63.5C -0.5,52.1667 -0.5,40.8333 -0.5,29.5 Z"/></g>
<g><path style="opacity:1" fill="#fea145" d="M 158.5,62.5 C 169.167,62.5 179.833,62.5 190.5,62.5C 190.5,73.1667 190.5,83.8333 190.5,94.5C 200.833,94.5 211.167,94.5 221.5,94.5C 221.5,115.5 221.5,136.5 221.5,157.5C 211.167,157.5 200.833,157.5 190.5,157.5C 190.5,147.167 190.5,136.833 190.5,126.5C 179.833,126.5 169.167,126.5 158.5,126.5C 157.506,136.653 157.172,146.986 157.5,157.5C 147.167,157.5 136.833,157.5 126.5,157.5C 126.5,136.5 126.5,115.5 126.5,94.5C 137.167,94.5 147.833,94.5 158.5,94.5C 158.5,83.8333 158.5,73.1667 158.5,62.5 Z"/></g>
<g><path style="opacity:1" fill="#fa5212" d="M 158.5,62.5 C 158.5,73.1667 158.5,83.8333 158.5,94.5C 147.833,94.5 137.167,94.5 126.5,94.5C 136.653,93.5058 146.986,93.1724 157.5,93.5C 157.172,82.9865 157.506,72.6532 158.5,62.5 Z"/></g>
<g><path style="opacity:1" fill="#fc8533" d="M 221.5,94.5 C 222.497,115.66 222.831,136.993 222.5,158.5C 211.833,158.5 201.167,158.5 190.5,158.5C 190.5,158.167 190.5,157.833 190.5,157.5C 200.833,157.5 211.167,157.5 221.5,157.5C 221.5,136.5 221.5,115.5 221.5,94.5 Z"/></g>
<g><path style="opacity:1" fill="#fffdfc" d="M 158.5,126.5 C 169.167,126.5 179.833,126.5 190.5,126.5C 190.5,136.833 190.5,147.167 190.5,157.5C 190.5,157.833 190.5,158.167 190.5,158.5C 179.833,158.5 169.167,158.5 158.5,158.5C 158.5,147.833 158.5,137.167 158.5,126.5 Z"/></g>
<g><path style="opacity:1" fill="#ffb875" d="M 158.5,126.5 C 158.5,137.167 158.5,147.833 158.5,158.5C 147.833,158.5 137.167,158.5 126.5,158.5C 126.5,158.167 126.5,157.833 126.5,157.5C 136.833,157.5 147.167,157.5 157.5,157.5C 157.172,146.986 157.506,136.653 158.5,126.5 Z"/></g>
<g><path style="opacity:1" fill="#fffdfc" d="M 126.5,158.5 C 137.167,158.5 147.833,158.5 158.5,158.5C 158.5,169.167 158.5,179.833 158.5,190.5C 158.167,190.5 157.833,190.5 157.5,190.5C 147.167,190.5 136.833,190.5 126.5,190.5C 126.5,179.833 126.5,169.167 126.5,158.5 Z"/></g>
<g><path style="opacity:1" fill="#ffa145" d="M 126.5,158.5 C 126.5,169.167 126.5,179.833 126.5,190.5C 136.833,190.5 147.167,190.5 157.5,190.5C 157.5,200.833 157.5,211.167 157.5,221.5C 136.5,221.5 115.5,221.5 94.5,221.5C 94.5,211.167 94.5,200.833 94.5,190.5C 83.8333,190.5 73.1667,190.5 62.5,190.5C 62.5,179.833 62.5,169.167 62.5,158.5C 83.8333,158.5 105.167,158.5 126.5,158.5 Z"/></g>
<g><path style="opacity:1" fill="#ffa044" d="M 158.5,158.5 C 169.167,158.5 179.833,158.5 190.5,158.5C 190.5,169.167 190.5,179.833 190.5,190.5C 179.833,190.5 169.167,190.5 158.5,190.5C 158.5,179.833 158.5,169.167 158.5,158.5 Z"/></g>
<g><path style="opacity:1" fill="#fc8533" d="M 157.5,190.5 C 157.833,190.5 158.167,190.5 158.5,190.5C 158.5,201.167 158.5,211.833 158.5,222.5C 136.993,222.831 115.66,222.497 94.5,221.5C 115.5,221.5 136.5,221.5 157.5,221.5C 157.5,211.167 157.5,200.833 157.5,190.5 Z"/></g>
</svg>
