<?xml version="1.0" encoding="UTF-8"?>
<!DOCTYPE svg PUBLIC "-//W3C//DTD SVG 1.1//EN" "http://www.w3.org/Graphics/SVG/1.1/DTD/svg11.dtd">
<svg xmlns="http://www.w3.org/2000/svg" version="1.1" width="322px" height="322px" style="shape-rendering:geometricPrecision; text-rendering:geometricPrecision; image-rendering:optimizeQuality; fill-rule:evenodd; clip-rule:evenodd" xmlns:xlink="http://www.w3.org/1999/xlink">
<g><path style="opacity:1" fill="#003200" d="M -0.5,-0.5 C 49.5,-0.5 99.5,-0.5 149.5,-0.5C 149.5,6.16667 149.5,12.8333 149.5,19.5C 206.5,19.5 263.5,19.5 320.5,19.5C 320.5,23.1667 320.5,26.8333 320.5,30.5C 266.833,30.5 213.167,30.5 159.5,30.5C 159.5,40.5 159.5,50.5 159.5,60.5C 159.5,63.8333 159.5,67.1667 159.5,70.5C 159.5,73.8333 159.5,77.1667 159.5,80.5C 159.5,107.167 159.5,133.833 159.5,160.5C 159.5,167.167 159.5,173.833 159.5,180.5C 159.5,183.833 159.5,187.167 159.5,190.5C 159.5,207.167 159.5,223.833 159.5,240.5C 159.5,247.167 159.5,253.833 159.5,260.5C 159.5,270.5 159.5,280.5 159.5,290.5C 213.167,290.5 266.833,290.5 320.5,290.5C 320.5,294.167 320.5,297.833 320.5,301.5C 263.5,301.5 206.5,301.5 149.5,301.5C 149.5,307.833 149.5,314.167 149.5,320.5C 99.5,320.5 49.5,320.5 -0.5,320.5C -0.5,213.5 -0.5,106.5 -0.5,-0.5 Z"/></g>
<g><path style="opacity:1" fill="#a9d20e" d="M 19.5,10.5 C 19.5,73.8333 19.5,137.167 19.5,200.5C 59.5,200.5 99.5,200.5 139.5,200.5C 139.5,220.5 139.5,240.5 139.5,260.5C 99.5,260.5 59.5,260.5 19.5,260.5C 19.5,277.167 19.5,293.833 19.5,310.5C 16.1667,310.5 12.8333,310.5 9.5,310.5C 9.5,210.5 9.5,110.5 9.5,10.5C 12.8333,10.5 16.1667,10.5 19.5,10.5 Z"/></g>
<g><path style="opacity:1" fill="#008c00" d="M 19.5,10.5 C 22.8333,10.5 26.1667,10.5 29.5,10.5C 29.5,17.1667 29.5,23.8333 29.5,30.5C 32.8333,30.5 36.1667,30.5 39.5,30.5C 39.5,33.8333 39.5,37.1667 39.5,40.5C 36.1667,40.5 32.8333,40.5 29.5,40.5C 29.5,43.8333 29.5,47.1667 29.5,50.5C 32.8333,50.5 36.1667,50.5 39.5,50.5C 39.5,53.8333 39.5,57.1667 39.5,60.5C 42.8333,60.5 46.1667,60.5 49.5,60.5C 49.5,63.8333 49.5,67.1667 49.5,70.5C 52.8333,70.5 56.1667,70.5 59.5,70.5C 59.5,67.1667 59.5,63.8333 59.5,60.5C 62.8333,60.5 66.1667,60.5 69.5,60.5C 69.5,63.8333 69.5,67.1667 69.5,70.5C 72.8333,70.5 76.1667,70.5 79.5,70.5C 79.5,67.1667 79.5,63.8333 79.5,60.5C 82.8333,60.5 86.1667,60.5 89.5,60.5C 89.5,63.8333 89.5,67.1667 89.5,70.5C 92.8333,70.5 96.1667,70.5 99.5,70.5C 99.5,67.1667 99.5,63.8333 99.5,60.5C 102.833,60.5 106.167,60.5 109.5,60.5C 109.5,63.8333 109.5,67.1667 109.5,70.5C 112.833,70.5 116.167,70.5 119.5,70.5C 119.5,67.1667 119.5,63.8333 119.5,60.5C 122.833,60.5 126.167,60.5 129.5,60.5C 129.5,63.8333 129.5,67.1667 129.5,70.5C 132.833,70.5 136.167,70.5 139.5,70.5C 139.5,103.833 139.5,137.167 139.5,170.5C 102.833,170.5 66.1667,170.5 29.5,170.5C 29.5,177.167 29.5,183.833 29.5,190.5C 66.1667,190.5 102.833,190.5 139.5,190.5C 139.5,193.833 139.5,197.167 139.5,200.5C 99.5,200.5 59.5,200.5 19.5,200.5C 19.5,137.167 19.5,73.8333 19.5,10.5 Z"/></g>
<g><path style="opacity:1" fill="#a9d20e" d="M 29.5,10.5 C 66.1667,10.5 102.833,10.5 139.5,10.5C 139.5,17.1667 139.5,23.8333 139.5,30.5C 136.167,30.5 132.833,30.5 129.5,30.5C 129.5,33.8333 129.5,37.1667 129.5,40.5C 126.167,40.5 122.833,40.5 119.5,40.5C 119.5,37.1667 119.5,33.8333 119.5,30.5C 116.167,30.5 112.833,30.5 109.5,30.5C 109.5,33.8333 109.5,37.1667 109.5,40.5C 106.167,40.5 102.833,40.5 99.5,40.5C 99.5,37.1667 99.5,33.8333 99.5,30.5C 96.1667,30.5 92.8333,30.5 89.5,30.5C 89.5,33.8333 89.5,37.1667 89.5,40.5C 86.1667,40.5 82.8333,40.5 79.5,40.5C 79.5,37.1667 79.5,33.8333 79.5,30.5C 76.1667,30.5 72.8333,30.5 69.5,30.5C 69.5,33.8333 69.5,37.1667 69.5,40.5C 66.1667,40.5 62.8333,40.5 59.5,40.5C 59.5,37.1667 59.5,33.8333 59.5,30.5C 56.1667,30.5 52.8333,30.5 49.5,30.5C 49.5,33.8333 49.5,37.1667 49.5,40.5C 46.1667,40.5 42.8333,40.5 39.5,40.5C 39.5,37.1667 39.5,33.8333 39.5,30.5C 36.1667,30.5 32.8333,30.5 29.5,30.5C 29.5,23.8333 29.5,17.1667 29.5,10.5 Z"/></g>
<g><path style="opacity:1" fill="#008c00" d="M 59.5,40.5 C 56.1667,40.5 52.8333,40.5 49.5,40.5C 49.5,37.1667 49.5,33.8333 49.5,30.5C 52.8333,30.5 56.1667,30.5 59.5,30.5C 59.5,33.8333 59.5,37.1667 59.5,40.5 Z"/></g>
<g><path style="opacity:1" fill="#008c00" d="M 79.5,40.5 C 76.1667,40.5 72.8333,40.5 69.5,40.5C 69.5,37.1667 69.5,33.8333 69.5,30.5C 72.8333,30.5 76.1667,30.5 79.5,30.5C 79.5,33.8333 79.5,37.1667 79.5,40.5 Z"/></g>
<g><path style="opacity:1" fill="#008c00" d="M 99.5,40.5 C 96.1667,40.5 92.8333,40.5 89.5,40.5C 89.5,37.1667 89.5,33.8333 89.5,30.5C 92.8333,30.5 96.1667,30.5 99.5,30.5C 99.5,33.8333 99.5,37.1667 99.5,40.5 Z"/></g>
<g><path style="opacity:1" fill="#008c00" d="M 119.5,40.5 C 116.167,40.5 112.833,40.5 109.5,40.5C 109.5,37.1667 109.5,33.8333 109.5,30.5C 112.833,30.5 116.167,30.5 119.5,30.5C 119.5,33.8333 119.5,37.1667 119.5,40.5 Z"/></g>
<g><path style="opacity:1" fill="#008c00" d="M 139.5,30.5 C 139.5,33.8333 139.5,37.1667 139.5,40.5C 136.167,40.5 132.833,40.5 129.5,40.5C 129.5,37.1667 129.5,33.8333 129.5,30.5C 132.833,30.5 136.167,30.5 139.5,30.5 Z"/></g>
<g><path style="opacity:1" fill="#a9d20e" d="M 320.5,30.5 C 320.5,37.1667 320.5,43.8333 320.5,50.5C 316.833,50.5 313.167,50.5 309.5,50.5C 309.5,53.8333 309.5,57.1667 309.5,60.5C 306.167,60.5 302.833,60.5 299.5,60.5C 299.5,57.1667 299.5,53.8333 299.5,50.5C 296.167,50.5 292.833,50.5 289.5,50.5C 289.5,53.8333 289.5,57.1667 289.5,60.5C 286.167,60.5 282.833,60.5 279.5,60.5C 279.5,57.1667 279.5,53.8333 279.5,50.5C 276.167,50.5 272.833,50.5 269.5,50.5C 269.5,53.8333 269.5,57.1667 269.5,60.5C 266.167,60.5 262.833,60.5 259.5,60.5C 259.5,57.1667 259.5,53.8333 259.5,50.5C 256.167,50.5 252.833,50.5 249.5,50.5C 249.5,53.8333 249.5,57.1667 249.5,60.5C 246.167,60.5 242.833,60.5 239.5,60.5C 239.5,57.1667 239.5,53.8333 239.5,50.5C 236.167,50.5 232.833,50.5 229.5,50.5C 229.5,53.8333 229.5,57.1667 229.5,60.5C 226.167,60.5 222.833,60.5 219.5,60.5C 219.5,57.1667 219.5,53.8333 219.5,50.5C 216.167,50.5 212.833,50.5 209.5,50.5C 209.5,53.8333 209.5,57.1667 209.5,60.5C 206.167,60.5 202.833,60.5 199.5,60.5C 199.5,57.1667 199.5,53.8333 199.5,50.5C 196.167,50.5 192.833,50.5 189.5,50.5C 189.5,53.8333 189.5,57.1667 189.5,60.5C 186.167,60.5 182.833,60.5 179.5,60.5C 179.5,57.1667 179.5,53.8333 179.5,50.5C 176.167,50.5 172.833,50.5 169.5,50.5C 169.5,53.8333 169.5,57.1667 169.5,60.5C 166.167,60.5 162.833,60.5 159.5,60.5C 159.5,50.5 159.5,40.5 159.5,30.5C 213.167,30.5 266.833,30.5 320.5,30.5 Z"/></g>
<g><path style="opacity:1" fill="#a9d20e" d="M 39.5,40.5 C 39.5,43.8333 39.5,47.1667 39.5,50.5C 36.1667,50.5 32.8333,50.5 29.5,50.5C 29.5,47.1667 29.5,43.8333 29.5,40.5C 32.8333,40.5 36.1667,40.5 39.5,40.5 Z"/></g>
<g><path style="opacity:1" fill="#008c00" d="M 39.5,40.5 C 42.8333,40.5 46.1667,40.5 49.5,40.5C 49.5,43.8333 49.5,47.1667 49.5,50.5C 46.1667,50.5 42.8333,50.5 39.5,50.5C 39.5,47.1667 39.5,43.8333 39.5,40.5 Z"/></g>
<g><path style="opacity:1" fill="#a9d20e" d="M 49.5,40.5 C 52.8333,40.5 56.1667,40.5 59.5,40.5C 59.5,43.8333 59.5,47.1667 59.5,50.5C 56.1667,50.5 52.8333,50.5 49.5,50.5C 49.5,47.1667 49.5,43.8333 49.5,40.5 Z"/></g>
<g><path style="opacity:1" fill="#008c00" d="M 59.5,40.5 C 62.8333,40.5 66.1667,40.5 69.5,40.5C 69.5,43.8333 69.5,47.1667 69.5,50.5C 66.1667,50.5 62.8333,50.5 59.5,50.5C 59.5,47.1667 59.5,43.8333 59.5,40.5 Z"/></g>
<g><path style="opacity:1" fill="#a9d20e" d="M 69.5,40.5 C 72.8333,40.5 76.1667,40.5 79.5,40.5C 79.5,43.8333 79.5,47.1667 79.5,50.5C 76.1667,50.5 72.8333,50.5 69.5,50.5C 69.5,47.1667 69.5,43.8333 69.5,40.5 Z"/></g>
<g><path style="opacity:1" fill="#008c00" d="M 79.5,40.5 C 82.8333,40.5 86.1667,40.5 89.5,40.5C 89.5,43.8333 89.5,47.1667 89.5,50.5C 86.1667,50.5 82.8333,50.5 79.5,50.5C 79.5,47.1667 79.5,43.8333 79.5,40.5 Z"/></g>
<g><path style="opacity:1" fill="#a9d20e" d="M 89.5,40.5 C 92.8333,40.5 96.1667,40.5 99.5,40.5C 99.5,43.8333 99.5,47.1667 99.5,50.5C 96.1667,50.5 92.8333,50.5 89.5,50.5C 89.5,47.1667 89.5,43.8333 89.5,40.5 Z"/></g>
<g><path style="opacity:1" fill="#008c00" d="M 99.5,40.5 C 102.833,40.5 106.167,40.5 109.5,40.5C 109.5,43.8333 109.5,47.1667 109.5,50.5C 106.167,50.5 102.833,50.5 99.5,50.5C 99.5,47.1667 99.5,43.8333 99.5,40.5 Z"/></g>
<g><path style="opacity:1" fill="#a9d20e" d="M 109.5,40.5 C 112.833,40.5 116.167,40.5 119.5,40.5C 119.5,43.8333 119.5,47.1667 119.5,50.5C 116.167,50.5 112.833,50.5 109.5,50.5C 109.5,47.1667 109.5,43.8333 109.5,40.5 Z"/></g>
<g><path style="opacity:1" fill="#008c00" d="M 119.5,40.5 C 122.833,40.5 126.167,40.5 129.5,40.5C 129.5,43.8333 129.5,47.1667 129.5,50.5C 126.167,50.5 122.833,50.5 119.5,50.5C 119.5,47.1667 119.5,43.8333 119.5,40.5 Z"/></g>
<g><path style="opacity:1" fill="#a9d20e" d="M 129.5,40.5 C 132.833,40.5 136.167,40.5 139.5,40.5C 139.5,43.8333 139.5,47.1667 139.5,50.5C 136.167,50.5 132.833,50.5 129.5,50.5C 129.5,47.1667 129.5,43.8333 129.5,40.5 Z"/></g>
<g><path style="opacity:1" fill="#a9d20e" d="M 39.5,50.5 C 42.8333,50.5 46.1667,50.5 49.5,50.5C 49.5,53.8333 49.5,57.1667 49.5,60.5C 46.1667,60.5 42.8333,60.5 39.5,60.5C 39.5,57.1667 39.5,53.8333 39.5,50.5 Z"/></g>
<g><path style="opacity:1" fill="#008c00" d="M 49.5,50.5 C 52.8333,50.5 56.1667,50.5 59.5,50.5C 59.5,53.8333 59.5,57.1667 59.5,60.5C 56.1667,60.5 52.8333,60.5 49.5,60.5C 49.5,57.1667 49.5,53.8333 49.5,50.5 Z"/></g>
<g><path style="opacity:1" fill="#a9d20e" d="M 59.5,50.5 C 62.8333,50.5 66.1667,50.5 69.5,50.5C 69.5,53.8333 69.5,57.1667 69.5,60.5C 66.1667,60.5 62.8333,60.5 59.5,60.5C 59.5,57.1667 59.5,53.8333 59.5,50.5 Z"/></g>
<g><path style="opacity:1" fill="#008c00" d="M 69.5,50.5 C 72.8333,50.5 76.1667,50.5 79.5,50.5C 79.5,53.8333 79.5,57.1667 79.5,60.5C 76.1667,60.5 72.8333,60.5 69.5,60.5C 69.5,57.1667 69.5,53.8333 69.5,50.5 Z"/></g>
<g><path style="opacity:1" fill="#a9d20e" d="M 79.5,50.5 C 82.8333,50.5 86.1667,50.5 89.5,50.5C 89.5,53.8333 89.5,57.1667 89.5,60.5C 86.1667,60.5 82.8333,60.5 79.5,60.5C 79.5,57.1667 79.5,53.8333 79.5,50.5 Z"/></g>
<g><path style="opacity:1" fill="#008c00" d="M 89.5,50.5 C 92.8333,50.5 96.1667,50.5 99.5,50.5C 99.5,53.8333 99.5,57.1667 99.5,60.5C 96.1667,60.5 92.8333,60.5 89.5,60.5C 89.5,57.1667 89.5,53.8333 89.5,50.5 Z"/></g>
<g><path style="opacity:1" fill="#a9d20e" d="M 99.5,50.5 C 102.833,50.5 106.167,50.5 109.5,50.5C 109.5,53.8333 109.5,57.1667 109.5,60.5C 106.167,60.5 102.833,60.5 99.5,60.5C 99.5,57.1667 99.5,53.8333 99.5,50.5 Z"/></g>
<g><path style="opacity:1" fill="#008c00" d="M 109.5,50.5 C 112.833,50.5 116.167,50.5 119.5,50.5C 119.5,53.8333 119.5,57.1667 119.5,60.5C 116.167,60.5 112.833,60.5 109.5,60.5C 109.5,57.1667 109.5,53.8333 109.5,50.5 Z"/></g>
<g><path style="opacity:1" fill="#a9d20e" d="M 119.5,50.5 C 122.833,50.5 126.167,50.5 129.5,50.5C 129.5,53.8333 129.5,57.1667 129.5,60.5C 126.167,60.5 122.833,60.5 119.5,60.5C 119.5,57.1667 119.5,53.8333 119.5,50.5 Z"/></g>
<g><path style="opacity:1" fill="#008c00" d="M 129.5,50.5 C 132.833,50.5 136.167,50.5 139.5,50.5C 139.5,53.8333 139.5,57.1667 139.5,60.5C 136.167,60.5 132.833,60.5 129.5,60.5C 129.5,57.1667 129.5,53.8333 129.5,50.5 Z"/></g>
<g><path style="opacity:1" fill="#008c00" d="M 179.5,60.5 C 176.167,60.5 172.833,60.5 169.5,60.5C 169.5,57.1667 169.5,53.8333 169.5,50.5C 172.833,50.5 176.167,50.5 179.5,50.5C 179.5,53.8333 179.5,57.1667 179.5,60.5 Z"/></g>
<g><path style="opacity:1" fill="#008c00" d="M 199.5,60.5 C 196.167,60.5 192.833,60.5 189.5,60.5C 189.5,57.1667 189.5,53.8333 189.5,50.5C 192.833,50.5 196.167,50.5 199.5,50.5C 199.5,53.8333 199.5,57.1667 199.5,60.5 Z"/></g>
<g><path style="opacity:1" fill="#008c00" d="M 219.5,60.5 C 216.167,60.5 212.833,60.5 209.5,60.5C 209.5,57.1667 209.5,53.8333 209.5,50.5C 212.833,50.5 216.167,50.5 219.5,50.5C 219.5,53.8333 219.5,57.1667 219.5,60.5 Z"/></g>
<g><path style="opacity:1" fill="#008c00" d="M 239.5,60.5 C 236.167,60.5 232.833,60.5 229.5,60.5C 229.5,57.1667 229.5,53.8333 229.5,50.5C 232.833,50.5 236.167,50.5 239.5,50.5C 239.5,53.8333 239.5,57.1667 239.5,60.5 Z"/></g>
<g><path style="opacity:1" fill="#008c00" d="M 259.5,60.5 C 256.167,60.5 252.833,60.5 249.5,60.5C 249.5,57.1667 249.5,53.8333 249.5,50.5C 252.833,50.5 256.167,50.5 259.5,50.5C 259.5,53.8333 259.5,57.1667 259.5,60.5 Z"/></g>
<g><path style="opacity:1" fill="#008c00" d="M 279.5,60.5 C 276.167,60.5 272.833,60.5 269.5,60.5C 269.5,57.1667 269.5,53.8333 269.5,50.5C 272.833,50.5 276.167,50.5 279.5,50.5C 279.5,53.8333 279.5,57.1667 279.5,60.5 Z"/></g>
<g><path style="opacity:1" fill="#008c00" d="M 299.5,60.5 C 296.167,60.5 292.833,60.5 289.5,60.5C 289.5,57.1667 289.5,53.8333 289.5,50.5C 292.833,50.5 296.167,50.5 299.5,50.5C 299.5,53.8333 299.5,57.1667 299.5,60.5 Z"/></g>
<g><path style="opacity:1" fill="#008c00" d="M 320.5,50.5 C 320.5,53.8333 320.5,57.1667 320.5,60.5C 316.833,60.5 313.167,60.5 309.5,60.5C 309.5,57.1667 309.5,53.8333 309.5,50.5C 313.167,50.5 316.833,50.5 320.5,50.5 Z"/></g>
<g><path style="opacity:1" fill="#a9d20e" d="M 39.5,60.5 C 39.5,63.8333 39.5,67.1667 39.5,70.5C 36.1667,70.5 32.8333,70.5 29.5,70.5C 29.5,67.1667 29.5,63.8333 29.5,60.5C 32.8333,60.5 36.1667,60.5 39.5,60.5 Z"/></g>
<g><path style="opacity:1" fill="#a9d20e" d="M 49.5,60.5 C 52.8333,60.5 56.1667,60.5 59.5,60.5C 59.5,63.8333 59.5,67.1667 59.5,70.5C 56.1667,70.5 52.8333,70.5 49.5,70.5C 49.5,67.1667 49.5,63.8333 49.5,60.5 Z"/></g>
<g><path style="opacity:1" fill="#a9d20e" d="M 69.5,60.5 C 72.8333,60.5 76.1667,60.5 79.5,60.5C 79.5,63.8333 79.5,67.1667 79.5,70.5C 76.1667,70.5 72.8333,70.5 69.5,70.5C 69.5,67.1667 69.5,63.8333 69.5,60.5 Z"/></g>
<g><path style="opacity:1" fill="#a9d20e" d="M 89.5,60.5 C 92.8333,60.5 96.1667,60.5 99.5,60.5C 99.5,63.8333 99.5,67.1667 99.5,70.5C 96.1667,70.5 92.8333,70.5 89.5,70.5C 89.5,67.1667 89.5,63.8333 89.5,60.5 Z"/></g>
<g><path style="opacity:1" fill="#a9d20e" d="M 109.5,60.5 C 112.833,60.5 116.167,60.5 119.5,60.5C 119.5,63.8333 119.5,67.1667 119.5,70.5C 116.167,70.5 112.833,70.5 109.5,70.5C 109.5,67.1667 109.5,63.8333 109.5,60.5 Z"/></g>
<g><path style="opacity:1" fill="#a9d20e" d="M 129.5,60.5 C 132.833,60.5 136.167,60.5 139.5,60.5C 139.5,63.8333 139.5,67.1667 139.5,70.5C 136.167,70.5 132.833,70.5 129.5,70.5C 129.5,67.1667 129.5,63.8333 129.5,60.5 Z"/></g>
<g><path style="opacity:1" fill="#008c00" d="M 159.5,60.5 C 162.833,60.5 166.167,60.5 169.5,60.5C 169.5,63.8333 169.5,67.1667 169.5,70.5C 166.167,70.5 162.833,70.5 159.5,70.5C 159.5,67.1667 159.5,63.8333 159.5,60.5 Z"/></g>
<g><path style="opacity:1" fill="#a9d20e" d="M 169.5,60.5 C 172.833,60.5 176.167,60.5 179.5,60.5C 179.5,63.8333 179.5,67.1667 179.5,70.5C 176.167,70.5 172.833,70.5 169.5,70.5C 169.5,67.1667 169.5,63.8333 169.5,60.5 Z"/></g>
<g><path style="opacity:1" fill="#008c00" d="M 179.5,60.5 C 182.833,60.5 186.167,60.5 189.5,60.5C 189.5,63.8333 189.5,67.1667 189.5,70.5C 186.167,70.5 182.833,70.5 179.5,70.5C 179.5,67.1667 179.5,63.8333 179.5,60.5 Z"/></g>
<g><path style="opacity:1" fill="#a9d20e" d="M 189.5,60.5 C 192.833,60.5 196.167,60.5 199.5,60.5C 199.5,63.8333 199.5,67.1667 199.5,70.5C 196.167,70.5 192.833,70.5 189.5,70.5C 189.5,67.1667 189.5,63.8333 189.5,60.5 Z"/></g>
<g><path style="opacity:1" fill="#008c00" d="M 199.5,60.5 C 202.833,60.5 206.167,60.5 209.5,60.5C 209.5,63.8333 209.5,67.1667 209.5,70.5C 206.167,70.5 202.833,70.5 199.5,70.5C 199.5,67.1667 199.5,63.8333 199.5,60.5 Z"/></g>
<g><path style="opacity:1" fill="#a9d20e" d="M 209.5,60.5 C 212.833,60.5 216.167,60.5 219.5,60.5C 219.5,63.8333 219.5,67.1667 219.5,70.5C 216.167,70.5 212.833,70.5 209.5,70.5C 209.5,67.1667 209.5,63.8333 209.5,60.5 Z"/></g>
<g><path style="opacity:1" fill="#008c00" d="M 219.5,60.5 C 222.833,60.5 226.167,60.5 229.5,60.5C 229.5,63.8333 229.5,67.1667 229.5,70.5C 226.167,70.5 222.833,70.5 219.5,70.5C 219.5,67.1667 219.5,63.8333 219.5,60.5 Z"/></g>
<g><path style="opacity:1" fill="#a9d20e" d="M 229.5,60.5 C 232.833,60.5 236.167,60.5 239.5,60.5C 239.5,63.8333 239.5,67.1667 239.5,70.5C 236.167,70.5 232.833,70.5 229.5,70.5C 229.5,67.1667 229.5,63.8333 229.5,60.5 Z"/></g>
<g><path style="opacity:1" fill="#008c00" d="M 239.5,60.5 C 242.833,60.5 246.167,60.5 249.5,60.5C 249.5,63.8333 249.5,67.1667 249.5,70.5C 246.167,70.5 242.833,70.5 239.5,70.5C 239.5,67.1667 239.5,63.8333 239.5,60.5 Z"/></g>
<g><path style="opacity:1" fill="#a9d20e" d="M 249.5,60.5 C 252.833,60.5 256.167,60.5 259.5,60.5C 259.5,63.8333 259.5,67.1667 259.5,70.5C 256.167,70.5 252.833,70.5 249.5,70.5C 249.5,67.1667 249.5,63.8333 249.5,60.5 Z"/></g>
<g><path style="opacity:1" fill="#008c00" d="M 259.5,60.5 C 262.833,60.5 266.167,60.5 269.5,60.5C 269.5,63.8333 269.5,67.1667 269.5,70.5C 266.167,70.5 262.833,70.5 259.5,70.5C 259.5,67.1667 259.5,63.8333 259.5,60.5 Z"/></g>
<g><path style="opacity:1" fill="#a9d20e" d="M 269.5,60.5 C 272.833,60.5 276.167,60.5 279.5,60.5C 279.5,63.8333 279.5,67.1667 279.5,70.5C 276.167,70.5 272.833,70.5 269.5,70.5C 269.5,67.1667 269.5,63.8333 269.5,60.5 Z"/></g>
<g><path style="opacity:1" fill="#008c00" d="M 279.5,60.5 C 282.833,60.5 286.167,60.5 289.5,60.5C 289.5,63.8333 289.5,67.1667 289.5,70.5C 286.167,70.5 282.833,70.5 279.5,70.5C 279.5,67.1667 279.5,63.8333 279.5,60.5 Z"/></g>
<g><path style="opacity:1" fill="#a9d20e" d="M 289.5,60.5 C 292.833,60.5 296.167,60.5 299.5,60.5C 299.5,63.8333 299.5,67.1667 299.5,70.5C 296.167,70.5 292.833,70.5 289.5,70.5C 289.5,67.1667 289.5,63.8333 289.5,60.5 Z"/></g>
<g><path style="opacity:1" fill="#008c00" d="M 299.5,60.5 C 302.833,60.5 306.167,60.5 309.5,60.5C 309.5,63.8333 309.5,67.1667 309.5,70.5C 306.167,70.5 302.833,70.5 299.5,70.5C 299.5,67.1667 299.5,63.8333 299.5,60.5 Z"/></g>
<g><path style="opacity:1" fill="#a9d20e" d="M 309.5,60.5 C 313.167,60.5 316.833,60.5 320.5,60.5C 320.5,63.8333 320.5,67.1667 320.5,70.5C 316.833,70.5 313.167,70.5 309.5,70.5C 309.5,67.1667 309.5,63.8333 309.5,60.5 Z"/></g>
<g><path style="opacity:1" fill="#a9d20e" d="M 159.5,70.5 C 162.833,70.5 166.167,70.5 169.5,70.5C 169.5,73.8333 169.5,77.1667 169.5,80.5C 166.167,80.5 162.833,80.5 159.5,80.5C 159.5,77.1667 159.5,73.8333 159.5,70.5 Z"/></g>
<g><path style="opacity:1" fill="#008c00" d="M 169.5,70.5 C 172.833,70.5 176.167,70.5 179.5,70.5C 179.5,73.8333 179.5,77.1667 179.5,80.5C 182.833,80.5 186.167,80.5 189.5,80.5C 189.5,77.1667 189.5,73.8333 189.5,70.5C 192.833,70.5 196.167,70.5 199.5,70.5C 199.5,73.8333 199.5,77.1667 199.5,80.5C 202.833,80.5 206.167,80.5 209.5,80.5C 209.5,77.1667 209.5,73.8333 209.5,70.5C 212.833,70.5 216.167,70.5 219.5,70.5C 219.5,73.8333 219.5,77.1667 219.5,80.5C 222.833,80.5 226.167,80.5 229.5,80.5C 229.5,77.1667 229.5,73.8333 229.5,70.5C 232.833,70.5 236.167,70.5 239.5,70.5C 239.5,73.8333 239.5,77.1667 239.5,80.5C 242.833,80.5 246.167,80.5 249.5,80.5C 249.5,77.1667 249.5,73.8333 249.5,70.5C 252.833,70.5 256.167,70.5 259.5,70.5C 259.5,73.8333 259.5,77.1667 259.5,80.5C 262.833,80.5 266.167,80.5 269.5,80.5C 269.5,77.1667 269.5,73.8333 269.5,70.5C 272.833,70.5 276.167,70.5 279.5,70.5C 279.5,73.8333 279.5,77.1667 279.5,80.5C 282.833,80.5 286.167,80.5 289.5,80.5C 289.5,77.1667 289.5,73.8333 289.5,70.5C 292.833,70.5 296.167,70.5 299.5,70.5C 299.5,73.8333 299.5,77.1667 299.5,80.5C 302.833,80.5 306.167,80.5 309.5,80.5C 309.5,77.1667 309.5,73.8333 309.5,70.5C 313.167,70.5 316.833,70.5 320.5,70.5C 320.5,100.5 320.5,130.5 320.5,160.5C 266.833,160.5 213.167,160.5 159.5,160.5C 159.5,133.833 159.5,107.167 159.5,80.5C 162.833,80.5 166.167,80.5 169.5,80.5C 169.5,77.1667 169.5,73.8333 169.5,70.5 Z"/></g>
<g><path style="opacity:1" fill="#a9d20e" d="M 179.5,70.5 C 182.833,70.5 186.167,70.5 189.5,70.5C 189.5,73.8333 189.5,77.1667 189.5,80.5C 186.167,80.5 182.833,80.5 179.5,80.5C 179.5,77.1667 179.5,73.8333 179.5,70.5 Z"/></g>
<g><path style="opacity:1" fill="#a9d20e" d="M 199.5,70.5 C 202.833,70.5 206.167,70.5 209.5,70.5C 209.5,73.8333 209.5,77.1667 209.5,80.5C 206.167,80.5 202.833,80.5 199.5,80.5C 199.5,77.1667 199.5,73.8333 199.5,70.5 Z"/></g>
<g><path style="opacity:1" fill="#a9d20e" d="M 219.5,70.5 C 222.833,70.5 226.167,70.5 229.5,70.5C 229.5,73.8333 229.5,77.1667 229.5,80.5C 226.167,80.5 222.833,80.5 219.5,80.5C 219.5,77.1667 219.5,73.8333 219.5,70.5 Z"/></g>
<g><path style="opacity:1" fill="#a9d20e" d="M 239.5,70.5 C 242.833,70.5 246.167,70.5 249.5,70.5C 249.5,73.8333 249.5,77.1667 249.5,80.5C 246.167,80.5 242.833,80.5 239.5,80.5C 239.5,77.1667 239.5,73.8333 239.5,70.5 Z"/></g>
<g><path style="opacity:1" fill="#a9d20e" d="M 259.5,70.5 C 262.833,70.5 266.167,70.5 269.5,70.5C 269.5,73.8333 269.5,77.1667 269.5,80.5C 266.167,80.5 262.833,80.5 259.5,80.5C 259.5,77.1667 259.5,73.8333 259.5,70.5 Z"/></g>
<g><path style="opacity:1" fill="#a9d20e" d="M 279.5,70.5 C 282.833,70.5 286.167,70.5 289.5,70.5C 289.5,73.8333 289.5,77.1667 289.5,80.5C 286.167,80.5 282.833,80.5 279.5,80.5C 279.5,77.1667 279.5,73.8333 279.5,70.5 Z"/></g>
<g><path style="opacity:1" fill="#a9d20e" d="M 299.5,70.5 C 302.833,70.5 306.167,70.5 309.5,70.5C 309.5,73.8333 309.5,77.1667 309.5,80.5C 306.167,80.5 302.833,80.5 299.5,80.5C 299.5,77.1667 299.5,73.8333 299.5,70.5 Z"/></g>
<g><path style="opacity:1" fill="#a9d20e" d="M 159.5,160.5 C 213.167,160.5 266.833,160.5 320.5,160.5C 320.5,167.167 320.5,173.833 320.5,180.5C 266.833,180.5 213.167,180.5 159.5,180.5C 159.5,173.833 159.5,167.167 159.5,160.5 Z"/></g>
<g><path style="opacity:1" fill="#a9d20e" d="M 139.5,170.5 C 139.5,177.167 139.5,183.833 139.5,190.5C 102.833,190.5 66.1667,190.5 29.5,190.5C 29.5,183.833 29.5,177.167 29.5,170.5C 66.1667,170.5 102.833,170.5 139.5,170.5 Z"/></g>
<g><path style="opacity:1" fill="#008c00" d="M 159.5,180.5 C 213.167,180.5 266.833,180.5 320.5,180.5C 320.5,183.833 320.5,187.167 320.5,190.5C 266.833,190.5 213.167,190.5 159.5,190.5C 159.5,187.167 159.5,183.833 159.5,180.5 Z"/></g>
<g><path style="opacity:1" fill="#a9d20e" d="M 159.5,190.5 C 213.167,190.5 266.833,190.5 320.5,190.5C 320.5,207.167 320.5,223.833 320.5,240.5C 266.833,240.5 213.167,240.5 159.5,240.5C 159.5,223.833 159.5,207.167 159.5,190.5 Z"/></g>
<g><path style="opacity:1" fill="#008c00" d="M 159.5,240.5 C 213.167,240.5 266.833,240.5 320.5,240.5C 320.5,247.167 320.5,253.833 320.5,260.5C 266.833,260.5 213.167,260.5 159.5,260.5C 159.5,253.833 159.5,247.167 159.5,240.5 Z"/></g>
<g><path style="opacity:1" fill="#008c00" d="M 139.5,260.5 C 139.5,267.167 139.5,273.833 139.5,280.5C 102.833,280.5 66.1667,280.5 29.5,280.5C 29.5,290.5 29.5,300.5 29.5,310.5C 26.1667,310.5 22.8333,310.5 19.5,310.5C 19.5,293.833 19.5,277.167 19.5,260.5C 59.5,260.5 99.5,260.5 139.5,260.5 Z"/></g>
<g><path style="opacity:1" fill="#a9d20e" d="M 159.5,260.5 C 213.167,260.5 266.833,260.5 320.5,260.5C 320.5,270.5 320.5,280.5 320.5,290.5C 266.833,290.5 213.167,290.5 159.5,290.5C 159.5,280.5 159.5,270.5 159.5,260.5 Z"/></g>
<g><path style="opacity:1" fill="#a9d20e" d="M 139.5,280.5 C 139.5,290.5 139.5,300.5 139.5,310.5C 102.833,310.5 66.1667,310.5 29.5,310.5C 29.5,300.5 29.5,290.5 29.5,280.5C 66.1667,280.5 102.833,280.5 139.5,280.5 Z"/></g>
</svg>
