<?xml version="1.0" encoding="UTF-8"?>
<!DOCTYPE svg PUBLIC "-//W3C//DTD SVG 1.1//EN" "http://www.w3.org/Graphics/SVG/1.1/DTD/svg11.dtd">
<svg xmlns="http://www.w3.org/2000/svg" version="1.1" width="60px" height="64px" style="shape-rendering:geometricPrecision; text-rendering:geometricPrecision; image-rendering:optimizeQuality; fill-rule:evenodd; clip-rule:evenodd" xmlns:xlink="http://www.w3.org/1999/xlink">
<g><path style="opacity:1" fill="#e62c1a" d="M 16.5,-0.5 C 23.8333,-0.5 31.1667,-0.5 38.5,-0.5C 38.5,0.833333 38.5,2.16667 38.5,3.5C 42.1667,3.5 45.8333,3.5 49.5,3.5C 49.5,5.16667 49.5,6.83333 49.5,8.5C 47.1667,8.5 44.8333,8.5 42.5,8.5C 42.5,9.5 42.5,10.5 42.5,11.5C 41.5655,10.4324 41.2322,9.09903 41.5,7.5C 40.1667,7.5 38.8333,7.5 37.5,7.5C 36.1667,7.5 34.8333,7.5 33.5,7.5C 30.8333,7.5 28.1667,7.5 25.5,7.5C 21.5,7.5 17.5,7.5 13.5,7.5C 12.5655,6.43236 12.2322,5.09903 12.5,3.5C 13.8333,3.5 15.1667,3.5 16.5,3.5C 16.5,2.16667 16.5,0.833333 16.5,-0.5 Z"/></g>
<g><path style="opacity:1" fill="#897623" d="M 13.5,7.5 C 17.5,7.5 21.5,7.5 25.5,7.5C 25.5,8.83333 25.5,10.1667 25.5,11.5C 24.1667,11.5 22.8333,11.5 21.5,11.5C 21.5,12.8333 21.5,14.1667 21.5,15.5C 22.8333,15.5 24.1667,15.5 25.5,15.5C 25.5,16.8333 25.5,18.1667 25.5,19.5C 22.8333,19.5 20.1667,19.5 17.5,19.5C 17.5,16.8333 17.5,14.1667 17.5,11.5C 16.1667,11.5 14.8333,11.5 13.5,11.5C 13.5,10.1667 13.5,8.83333 13.5,7.5 Z"/></g>
<g><path style="opacity:1" fill="#f4ab5e" d="M 25.5,7.5 C 28.1667,7.5 30.8333,7.5 33.5,7.5C 33.5,10.1667 33.5,12.8333 33.5,15.5C 34.8333,15.5 36.1667,15.5 37.5,15.5C 37.5,16.8333 37.5,18.1667 37.5,19.5C 36.1667,19.5 34.8333,19.5 33.5,19.5C 33.5,20.8333 33.5,22.1667 33.5,23.5C 37.5,23.5 41.5,23.5 45.5,23.5C 45.5,24.8333 45.5,26.1667 45.5,27.5C 42.8333,27.5 40.1667,27.5 37.5,27.5C 33.5,27.5 29.5,27.5 25.5,27.5C 24.1667,27.5 22.8333,27.5 21.5,27.5C 20.1667,27.5 18.8333,27.5 17.5,27.5C 17.5,26.1667 17.5,24.8333 17.5,23.5C 17.5,22.1667 17.5,20.8333 17.5,19.5C 20.1667,19.5 22.8333,19.5 25.5,19.5C 25.5,18.1667 25.5,16.8333 25.5,15.5C 24.1667,15.5 22.8333,15.5 21.5,15.5C 21.5,14.1667 21.5,12.8333 21.5,11.5C 22.8333,11.5 24.1667,11.5 25.5,11.5C 25.5,10.1667 25.5,8.83333 25.5,7.5 Z"/></g>
<g><path style="opacity:1" fill="#897623" d="M 33.5,7.5 C 34.8333,7.5 36.1667,7.5 37.5,7.5C 37.5,10.1667 37.5,12.8333 37.5,15.5C 36.1667,15.5 34.8333,15.5 33.5,15.5C 33.5,12.8333 33.5,10.1667 33.5,7.5 Z"/></g>
<g><path style="opacity:1" fill="#f4a75c" d="M 37.5,7.5 C 38.8333,7.5 40.1667,7.5 41.5,7.5C 41.2322,9.09903 41.5655,10.4324 42.5,11.5C 45.1667,11.5 47.8333,11.5 50.5,11.5C 50.5,12.8333 50.5,14.1667 50.5,15.5C 51.5,15.5 52.5,15.5 53.5,15.5C 53.5,17.1667 53.5,18.8333 53.5,20.5C 52.1667,20.5 50.8333,20.5 49.5,20.5C 47.0521,19.5269 44.3854,19.1936 41.5,19.5C 41.5,18.1667 41.5,16.8333 41.5,15.5C 40.1667,15.5 38.8333,15.5 37.5,15.5C 37.5,12.8333 37.5,10.1667 37.5,7.5 Z"/></g>
<g><path style="opacity:1" fill="#887723" d="M 13.5,11.5 C 13.5,14.1667 13.5,16.8333 13.5,19.5C 14.8333,19.5 16.1667,19.5 17.5,19.5C 17.5,20.8333 17.5,22.1667 17.5,23.5C 14.8333,23.5 12.1667,23.5 9.5,23.5C 9.5,19.5 9.5,15.5 9.5,11.5C 10.8333,11.5 12.1667,11.5 13.5,11.5 Z"/></g>
<g><path style="opacity:1" fill="#f3aa5d" d="M 13.5,11.5 C 14.8333,11.5 16.1667,11.5 17.5,11.5C 17.5,14.1667 17.5,16.8333 17.5,19.5C 16.1667,19.5 14.8333,19.5 13.5,19.5C 13.5,16.8333 13.5,14.1667 13.5,11.5 Z"/></g>
<g><path style="opacity:1" fill="#887723" d="M 37.5,15.5 C 38.8333,15.5 40.1667,15.5 41.5,15.5C 41.5,16.8333 41.5,18.1667 41.5,19.5C 44.3854,19.1936 47.0521,19.5269 49.5,20.5C 49.5,21.5 49.5,22.5 49.5,23.5C 48.1667,23.5 46.8333,23.5 45.5,23.5C 41.5,23.5 37.5,23.5 33.5,23.5C 33.5,22.1667 33.5,20.8333 33.5,19.5C 34.8333,19.5 36.1667,19.5 37.5,19.5C 37.5,18.1667 37.5,16.8333 37.5,15.5 Z"/></g>
<g><path style="opacity:1" fill="#897623" d="M 17.5,27.5 C 18.8333,27.5 20.1667,27.5 21.5,27.5C 21.5,31.5 21.5,35.5 21.5,39.5C 20.1667,39.5 18.8333,39.5 17.5,39.5C 17.5,40.8333 17.5,42.1667 17.5,43.5C 16.1667,43.5 14.8333,43.5 13.5,43.5C 13.5,42.1667 13.5,40.8333 13.5,39.5C 10.8333,39.5 8.16667,39.5 5.5,39.5C 5.5,38.1667 5.5,36.8333 5.5,35.5C 6.5,35.5 7.5,35.5 8.5,35.5C 8.5,34.1667 8.5,32.8333 8.5,31.5C 10.1667,31.5 11.8333,31.5 13.5,31.5C 13.5,30.1667 13.5,28.8333 13.5,27.5C 14.8333,27.5 16.1667,27.5 17.5,27.5 Z"/></g>
<g><path style="opacity:1" fill="#e62518" d="M 21.5,27.5 C 22.8333,27.5 24.1667,27.5 25.5,27.5C 25.5,30.1667 25.5,32.8333 25.5,35.5C 28.1667,35.5 30.8333,35.5 33.5,35.5C 33.5,34.1667 33.5,32.8333 33.5,31.5C 34.8333,31.5 36.1667,31.5 37.5,31.5C 37.5,34.1667 37.5,36.8333 37.5,39.5C 38.8333,39.5 40.1667,39.5 41.5,39.5C 41.5,40.8333 41.5,42.1667 41.5,43.5C 41.5,44.8333 41.5,46.1667 41.5,47.5C 42.8333,47.5 44.1667,47.5 45.5,47.5C 45.5,48.8333 45.5,50.1667 45.5,51.5C 48.1667,51.5 50.8333,51.5 53.5,51.5C 50.5234,51.9016 47.8567,52.9016 45.5,54.5C 43.0521,55.4731 40.3854,55.8064 37.5,55.5C 36.1667,55.5 34.8333,55.5 33.5,55.5C 33.5,54.5 33.5,53.5 33.5,52.5C 31.0521,51.5269 28.3854,51.1936 25.5,51.5C 25.5,52.8333 25.5,54.1667 25.5,55.5C 24.5,55.5 23.5,55.5 22.5,55.5C 19.2869,55.81 16.2869,55.4767 13.5,54.5C 11.1433,52.9016 8.47661,51.9016 5.5,51.5C 8.16667,51.5 10.8333,51.5 13.5,51.5C 13.5,50.1667 13.5,48.8333 13.5,47.5C 14.8333,47.5 16.1667,47.5 17.5,47.5C 17.5,46.1667 17.5,44.8333 17.5,43.5C 17.5,42.1667 17.5,40.8333 17.5,39.5C 18.8333,39.5 20.1667,39.5 21.5,39.5C 21.5,35.5 21.5,31.5 21.5,27.5 Z"/></g>
<g><path style="opacity:1" fill="#897623" d="M 25.5,27.5 C 29.5,27.5 33.5,27.5 37.5,27.5C 37.5,28.5 37.5,29.5 37.5,30.5C 41.5138,30.3345 45.5138,30.5012 49.5,31C 50.3802,32.3561 50.7135,33.8561 50.5,35.5C 51.5,35.5 52.5,35.5 53.5,35.5C 53.5,36.8333 53.5,38.1667 53.5,39.5C 50.8333,39.5 48.1667,39.5 45.5,39.5C 45.5,40.8333 45.5,42.1667 45.5,43.5C 44.1667,43.5 42.8333,43.5 41.5,43.5C 41.5,42.1667 41.5,40.8333 41.5,39.5C 40.1667,39.5 38.8333,39.5 37.5,39.5C 37.5,36.8333 37.5,34.1667 37.5,31.5C 36.1667,31.5 34.8333,31.5 33.5,31.5C 33.5,32.8333 33.5,34.1667 33.5,35.5C 30.8333,35.5 28.1667,35.5 25.5,35.5C 25.5,32.8333 25.5,30.1667 25.5,27.5 Z"/></g>
<g><path style="opacity:1" fill="#f4ab5e" d="M 53.5,39.5 C 53.5,43.5 53.5,47.5 53.5,51.5C 50.8333,51.5 48.1667,51.5 45.5,51.5C 45.5,50.1667 45.5,48.8333 45.5,47.5C 44.1667,47.5 42.8333,47.5 41.5,47.5C 41.5,46.1667 41.5,44.8333 41.5,43.5C 42.8333,43.5 44.1667,43.5 45.5,43.5C 45.5,42.1667 45.5,40.8333 45.5,39.5C 48.1667,39.5 50.8333,39.5 53.5,39.5 Z"/></g>
<g><path style="opacity:1" fill="#f4ab5e" d="M 5.5,39.5 C 8.16667,39.5 10.8333,39.5 13.5,39.5C 13.5,40.8333 13.5,42.1667 13.5,43.5C 14.8333,43.5 16.1667,43.5 17.5,43.5C 17.5,44.8333 17.5,46.1667 17.5,47.5C 16.1667,47.5 14.8333,47.5 13.5,47.5C 13.5,48.8333 13.5,50.1667 13.5,51.5C 10.8333,51.5 8.16667,51.5 5.5,51.5C 5.5,47.5 5.5,43.5 5.5,39.5 Z"/></g>
<g><path style="opacity:1" fill="#f3aa5d" d="M 21.5,39.5 C 22.8333,39.5 24.1667,39.5 25.5,39.5C 25.5,40.8333 25.5,42.1667 25.5,43.5C 24.1667,43.5 22.8333,43.5 21.5,43.5C 21.5,42.1667 21.5,40.8333 21.5,39.5 Z"/></g>
<g><path style="opacity:1" fill="#f3aa5d" d="M 37.5,39.5 C 37.5,40.8333 37.5,42.1667 37.5,43.5C 36.1667,43.5 34.8333,43.5 33.5,43.5C 33.5,42.1667 33.5,40.8333 33.5,39.5C 34.8333,39.5 36.1667,39.5 37.5,39.5 Z"/></g>
<g><path style="opacity:0.063" fill="#e66837" d="M 33.5,52.5 C 31.1667,52.5 28.8333,52.5 26.5,52.5C 26.7373,53.791 26.404,54.791 25.5,55.5C 25.5,54.1667 25.5,52.8333 25.5,51.5C 28.3854,51.1936 31.0521,51.5269 33.5,52.5 Z"/></g>
<g><path style="opacity:1" fill="#897623" d="M 13.5,54.5 C 16.2869,55.4767 19.2869,55.81 22.5,55.5C 22.5,58.1667 22.5,60.8333 22.5,63.5C 16.8333,63.5 11.1667,63.5 5.5,63.5C 5.5,62.1667 5.5,60.8333 5.5,59.5C 6.5,59.5 7.5,59.5 8.5,59.5C 7.83333,55.5 9.5,53.8333 13.5,54.5 Z"/></g>
<g><path style="opacity:1" fill="#897623" d="M 45.5,54.5 C 49.5,53.8333 51.1667,55.5 50.5,59.5C 51.5,59.5 52.5,59.5 53.5,59.5C 53.5,60.8333 53.5,62.1667 53.5,63.5C 48.1667,63.5 42.8333,63.5 37.5,63.5C 37.5,60.8333 37.5,58.1667 37.5,55.5C 40.3854,55.8064 43.0521,55.4731 45.5,54.5 Z"/></g>
</svg>
