<?xml version="1.0" encoding="utf-8"?>
<!-- Generator: Adobe Illustrator 25.2.3, SVG Export Plug-In . SVG Version: 6.00 Build 0)  -->
<svg version="1.1" id="Layer_1" xmlns="http://www.w3.org/2000/svg" xmlns:xlink="http://www.w3.org/1999/xlink" x="0px" y="0px"
	 viewBox="0 0 100 100" style="enable-background:new 0 0 100 100;" xml:space="preserve">
<g>
	<path d="M100,100H0V0h100V100z M5.14,94.86h89.72V5.14H5.14V94.86z"/>
	<polygon points="41.35,60.73 48.24,60.73 58.63,38.98 51.74,38.98 	"/>
	<polygon points="30.95,82.49 24.06,82.49 13.67,60.73 20.56,60.73 	"/>
	<polygon points="30.95,82.49 37.84,82.49 48.24,60.73 41.34,60.73 	"/>
	<polygon points="86.3,38.98 79.41,38.98 69.02,17.22 75.91,17.22 	"/>
	<polygon points="51.73,38.98 58.62,38.98 69.02,17.22 62.12,17.22 	"/>
	<polygon points="31.13,38.98 24.17,38.98 13.67,17.22 20.63,17.22 	"/>
	<polygon points="44.2,38.98 37.24,38.98 26.74,17.22 33.7,17.22 	"/>
	<polygon points="84.29,77.82 77.32,77.82 72.23,77.82 68.2,77.82 65.26,77.82 64.03,77.82 61.23,77.82 57.07,77.82 59.37,82.59 
		63.54,82.59 66.34,82.59 67.57,82.59 70.5,82.59 74.54,82.59 79.63,82.59 86.59,82.59 	"/>
	<polygon points="84.29,60.84 80.26,60.84 77.32,60.84 76.09,60.84 73.29,60.84 69.13,60.84 64.03,60.84 57.07,60.84 59.37,65.62 
		66.34,65.62 71.43,65.62 75.6,65.62 78.4,65.62 79.63,65.62 82.56,65.62 86.59,65.62 	"/>
	<polygon points="84.29,69.19 80.12,69.19 77.32,69.19 73.16,69.19 68.07,69.19 64.03,69.19 61.1,69.19 57.07,69.19 59.37,73.97 
		63.41,73.97 66.34,73.97 70.37,73.97 75.47,73.97 79.63,73.97 82.43,73.97 86.59,73.97 	"/>
	<polygon points="54.29,17.22 47.33,17.22 42.18,27.89 49.14,27.89 	"/>
</g>
</svg>
